<svg width="260" height="208" viewBox="0 0 260 208" fill="none" xmlns="http://www.w3.org/2000/svg">
<path d="M0 136.5C0 168.797 26.2031 195 58.5 195H208C236.722 195 260 171.722 260 143C260 117.853 242.125 96.85 218.4 92.0563C220.066 87.7094 221 82.9562 221 78C221 56.4688 203.531 39 182 39C173.997 39 166.522 41.4375 160.347 45.5812C149.094 26.0812 128.091 13 104 13C68.0875 13 39 42.0875 39 78C39 79.0969 39.0406 80.1938 39.0812 81.2906C16.3312 89.2938 0 110.988 0 136.5Z" fill="white" fill-opacity="0.5"/>
</svg>
