<svg width="100" height="100" viewBox="0 0 100 100" fill="none" xmlns="http://www.w3.org/2000/svg">
<g clip-path="url(#clip0_0_1110)">
<g clip-path="url(#clip1_0_1110)">
<path fill-rule="evenodd" clip-rule="evenodd" d="M71.9875 33.9959C70.8431 33.9959 69.7014 34.1194 68.5853 34.3634C65.0186 26.0206 56.6925 20.4554 47.6856 20.4554C36.4437 20.4554 27.0964 28.4506 25.2358 39.5555C25.2088 39.554 25.1819 39.554 25.1563 39.554C17.8059 39.554 11.8254 45.5945 11.8254 53.0166C11.8254 60.4373 17.8059 66.4749 25.1563 66.4749H71.9875C80.8526 66.4749 88.0655 59.1889 88.0655 50.2361C88.0655 41.2819 80.8526 33.9959 71.9875 33.9959ZM84.832 50.2361C84.832 57.3958 79.0699 63.2206 71.9875 63.2206H25.1563C19.5886 63.2206 15.0589 58.6428 15.0589 53.0166C15.0589 47.3876 19.5886 42.8083 25.1563 42.8083C25.5279 42.8083 25.9335 42.8367 26.4341 42.8991L28.0764 43.1048L28.2423 41.4479C29.2563 31.3346 37.6151 23.7096 47.6856 23.7096C55.9224 23.7096 63.3154 28.9911 66.0837 36.8516L66.6055 38.3355L68.0961 37.8574C69.3611 37.4545 70.6701 37.2502 71.9875 37.2502C79.0699 37.2502 84.832 43.075 84.832 50.2361Z" fill="white"/>
<path fill-rule="evenodd" clip-rule="evenodd" d="M57.1807 76.799C57.1807 78.4928 55.8093 79.8646 54.1174 79.8646C52.4255 79.8646 51.0527 78.4928 51.0527 76.799C51.0527 75.1066 52.4255 73.7348 54.1174 73.7348C55.8093 73.7348 57.1807 75.1066 57.1807 76.799Z" fill="white"/>
<path fill-rule="evenodd" clip-rule="evenodd" d="M77.3581 75.7824C77.3581 77.4762 75.9853 78.848 74.2935 78.848C72.6016 78.848 71.2288 77.4762 71.2288 75.7824C71.2288 74.09 72.6016 72.7182 74.2935 72.7182C75.9853 72.7182 77.3581 74.09 77.3581 75.7824Z" fill="white"/>
<path fill-rule="evenodd" clip-rule="evenodd" d="M36.9441 77.1116C36.9441 78.8054 35.5727 80.1772 33.8809 80.1772C32.1875 80.1772 30.8162 78.8054 30.8162 77.1116C30.8162 75.4192 32.1875 74.0474 33.8809 74.0474C35.5727 74.0474 36.9441 75.4192 36.9441 77.1116Z" fill="white"/>
</g>
</g>
<defs>
<clipPath id="clip0_0_1110">
<rect width="100" height="100" fill="white"/>
</clipPath>
<clipPath id="clip1_0_1110">
<rect width="78" height="61" fill="white" transform="translate(11 20)"/>
</clipPath>
</defs>
</svg>
