<svg width="100" height="100" viewBox="0 0 100 100" fill="none" xmlns="http://www.w3.org/2000/svg">
<g clip-path="url(#clip0_0_1093)">
<g clip-path="url(#clip1_0_1093)">
<path fill-rule="evenodd" clip-rule="evenodd" d="M72.0357 22.266C70.9013 22.266 69.7683 22.3864 68.6607 22.6272C65.1197 14.3938 56.8582 8.9016 47.9183 8.9016C36.7632 8.9016 27.4856 16.7934 25.6391 27.7512C25.6123 27.7512 25.587 27.7512 25.5603 27.7512C18.2671 27.7512 12.332 33.711 12.332 41.0358C12.332 48.3592 18.2671 54.3176 25.5603 54.3176H72.0357C80.8334 54.3176 87.9914 47.1286 87.9914 38.2918C87.9914 29.455 80.8334 22.266 72.0357 22.266ZM84.7825 38.2918C84.7825 45.359 79.0643 51.1074 72.0357 51.1074H25.5603C20.0362 51.1074 15.5409 46.5896 15.5409 41.0358C15.5409 35.4806 20.0362 30.9614 25.5603 30.9614C25.929 30.9614 26.3329 30.9894 26.8283 31.051L28.4595 31.254L28.6228 29.6188C29.6305 19.6396 37.9257 12.1132 47.9183 12.1132C56.0925 12.1132 63.4308 17.3254 66.1766 25.0842L66.696 26.5486L68.1751 26.0768C69.4306 25.6778 70.7282 25.4762 72.0357 25.4762C79.0643 25.4762 84.7825 31.2246 84.7825 38.2918Z" fill="white"/>
<path fill-rule="evenodd" clip-rule="evenodd" d="M25.7856 63.1558C27.1367 65.61 28.4878 68.0642 29.8389 70.5184C30.7805 72.2264 33.4067 70.7018 32.4651 68.991C31.114 66.5368 29.7615 64.084 28.4104 61.6298C27.4702 59.9218 24.8426 61.4464 25.7856 63.1558Z" fill="white"/>
<path fill-rule="evenodd" clip-rule="evenodd" d="M71.9824 63.1558C73.3335 65.61 74.6846 68.0642 76.0371 70.5184C76.9773 72.2264 79.6035 70.7018 78.6619 68.991C77.3108 66.5368 75.9597 64.084 74.6072 61.6298C73.667 59.9218 71.0408 61.4464 71.9824 63.1558Z" fill="white"/>
<path fill-rule="evenodd" clip-rule="evenodd" d="M68.5875 71.2394C69.94 73.6936 71.2911 76.1478 72.6423 78.6006C73.5838 80.3086 76.21 78.784 75.2685 77.0746C73.9174 74.6204 72.5663 72.1662 71.2137 69.7134C70.2736 68.0054 67.646 69.53 68.5875 71.2394Z" fill="white"/>
<path fill-rule="evenodd" clip-rule="evenodd" d="M15.1808 62.0596C16.5333 64.5124 17.8844 66.9666 19.2355 69.4208C20.1771 71.1288 22.8033 69.6042 21.8617 67.8934C20.5106 65.4406 19.1581 62.9864 17.807 60.5322C16.8669 58.8242 14.2392 60.3488 15.1808 62.0596Z" fill="white"/>
<path fill-rule="evenodd" clip-rule="evenodd" d="M25.7856 73.5396C27.1367 75.9924 28.4878 78.4466 29.8389 80.9008C30.7805 82.6088 33.4067 81.0842 32.4651 79.3734C31.114 76.9206 29.7615 74.4664 28.4104 72.0122C27.4702 70.3042 24.8426 71.8288 25.7856 73.5396Z" fill="white"/>
<path fill-rule="evenodd" clip-rule="evenodd" d="M55.123 54.1664L54.7993 54.3176H55.1948L55.123 54.1664Z" fill="white"/>
<path fill-rule="evenodd" clip-rule="evenodd" d="M40.4522 54.032L39.999 54.3176H40.6352L40.4522 54.032Z" fill="white"/>
<path fill-rule="evenodd" clip-rule="evenodd" d="M61.5323 73.4416H56.6359C55.9871 73.4416 55.3847 73.7622 55.0245 74.2998C54.6642 74.8374 54.598 75.515 54.8485 76.1128L59.4451 87.051L40.7238 67.3026H45.4105C46.117 67.3026 46.7672 66.919 47.1078 66.303C47.4484 65.6856 47.4245 64.9338 47.0445 64.3402L42.4141 57.1008H39.5317L44.5069 64.882H39.5767C38.8013 64.882 38.1032 65.3384 37.7964 66.0454C37.491 66.7524 37.6359 67.5714 38.1665 68.1314L59.5422 90.6798C59.925 91.0844 60.4303 91.293 60.944 91.293C61.3085 91.293 61.6759 91.188 62.0052 90.9752C62.8046 90.46 63.1072 89.4898 62.7399 88.6148L57.3805 75.8608H62.3134C62.9805 75.8608 63.5927 75.5262 63.9502 74.9662C64.3063 74.4048 64.3499 73.7118 64.067 73.1154L56.5079 57.1008H53.8197L61.5323 73.4416Z" fill="white"/>
</g>
</g>
<defs>
<clipPath id="clip0_0_1093">
<rect width="100" height="100" fill="white"/>
</clipPath>
<clipPath id="clip1_0_1093">
<rect width="76" height="84" fill="white" transform="translate(12 8)"/>
</clipPath>
</defs>
</svg>
