<svg width="100" height="100" viewBox="0 0 100 100" fill="none" xmlns="http://www.w3.org/2000/svg">
<g clip-path="url(#clip0_0_1119)">
<rect opacity="0.0229128" x="0.5" y="0.5" width="99" height="99" stroke="#2B2B2B"/>
<path fill-rule="evenodd" clip-rule="evenodd" d="M70.3453 31.979C69.1876 31.979 68.0313 32.1028 66.9009 32.346C63.287 23.9833 54.8556 18.4039 45.7318 18.4039C34.3472 18.4039 24.8801 26.4196 22.9941 37.5513C22.9683 37.5513 22.941 37.5513 22.9151 37.5513C15.4705 37.5513 9.41333 43.6057 9.41333 51.0468C9.41333 58.4878 15.4705 64.5408 22.9151 64.5408H70.3453C79.324 64.5408 86.6294 57.2363 86.6294 48.2592C86.6294 39.2821 79.324 31.979 70.3453 31.979ZM83.3545 48.2592C83.3545 55.4386 77.52 61.2782 70.3453 61.2782H22.9151C17.276 61.2782 12.6882 56.6887 12.6882 51.0468C12.6882 45.4034 17.276 40.8124 22.9151 40.8124C23.2915 40.8124 23.7023 40.8423 24.2079 40.9035L25.8726 41.1111L26.0392 39.45C27.0677 29.3109 35.5336 21.6651 45.7318 21.6651C54.0756 21.6651 61.5634 26.96 64.3657 34.842L64.8957 36.3296L66.4054 35.8503C67.6866 35.4464 69.0124 35.2416 70.3453 35.2416C77.52 35.2416 83.3545 41.0812 83.3545 48.2592Z" fill="white"/>
<path fill-rule="evenodd" clip-rule="evenodd" d="M23.1435 73.5193C24.5224 76.0124 25.9013 78.5042 27.2816 80.9973C28.2411 82.7324 30.9214 81.1836 29.9605 79.4471C28.5816 76.954 27.2026 74.4608 25.8223 71.9676C24.8628 70.2325 22.1826 71.7813 23.1435 73.5193Z" fill="white"/>
<path fill-rule="evenodd" clip-rule="evenodd" d="M38.517 73.5193C39.8959 76.0124 41.2748 78.5042 42.6537 80.9973C43.6146 82.7324 46.2949 81.1836 45.334 79.4471C43.9551 76.954 42.5762 74.4608 41.1958 71.9676C40.2363 70.2325 37.5546 71.7813 38.517 73.5193Z" fill="white"/>
<path fill-rule="evenodd" clip-rule="evenodd" d="M54.6747 73.5193C56.055 76.0124 57.4339 78.5042 58.8128 80.9973C59.7723 82.7324 62.454 81.1836 61.4931 79.4471C60.1142 76.954 58.7338 74.4608 57.3549 71.9676C56.3954 70.2325 53.7137 71.7813 54.6747 73.5193Z" fill="white"/>
<path fill-rule="evenodd" clip-rule="evenodd" d="M70.2907 73.5193C71.6696 76.0124 73.05 78.5042 74.4289 80.9973C75.3884 82.7324 78.07 81.1836 77.1091 79.4471C75.7288 76.954 74.3499 74.4608 72.971 71.9676C72.01 70.2325 69.3298 71.7813 70.2907 73.5193Z" fill="white"/>
</g>
<defs>
<clipPath id="clip0_0_1119">
<rect width="100" height="100" fill="white"/>
</clipPath>
</defs>
</svg>
