<svg width="100" height="100" viewBox="0 0 100 100" fill="none" xmlns="http://www.w3.org/2000/svg">
<g clip-path="url(#clip0_0_1079)">
<path fill-rule="evenodd" clip-rule="evenodd" d="M74.9506 74.8615L64.0325 64.7978C63.355 64.174 63.321 63.1179 63.9597 62.4529C64.5985 61.7895 65.677 61.7578 66.3562 62.3832L77.2743 72.4453C77.9518 73.0707 77.9842 74.1252 77.3454 74.7902C76.7083 75.4552 75.6298 75.4869 74.9506 74.8615Z" fill="#FFFFFE"/>
<path fill-rule="evenodd" clip-rule="evenodd" d="M33.2381 36.6652L22.3199 26.6031C21.6408 25.9777 21.6085 24.9232 22.2472 24.2582C22.8859 23.5932 23.9628 23.5615 24.642 24.1869L35.5601 34.2506C36.2393 34.876 36.2716 35.9305 35.6329 36.5955C34.9942 37.2589 33.9156 37.2906 33.2381 36.6652Z" fill="#FFFFFE"/>
<path fill-rule="evenodd" clip-rule="evenodd" d="M24.511 74.7364L34.5317 63.8146C35.1542 63.1369 36.2312 63.0799 36.9249 63.6895C37.6186 64.2991 37.6752 65.3536 37.0526 66.0328L27.0319 76.9547C26.4094 77.6323 25.3325 77.6893 24.6404 77.0797C23.9467 76.4702 23.8885 75.4157 24.511 74.7364Z" fill="#FFFFFE"/>
<path fill-rule="evenodd" clip-rule="evenodd" d="M62.54 33.0156L72.5607 22.0938C73.1832 21.4161 74.2601 21.3591 74.9539 21.9687C75.6459 22.5783 75.7041 23.6328 75.0816 24.312L65.0609 35.2338C64.4384 35.9115 63.3614 35.9685 62.6677 35.3589C61.9756 34.7493 61.9174 33.6948 62.54 33.0156Z" fill="#FFFFFE"/>
<path fill-rule="evenodd" clip-rule="evenodd" d="M48.8277 84.9568L48.6563 70.2762C48.6466 69.3642 49.4002 68.6089 50.3316 68.5994C51.263 68.5883 52.0343 69.3262 52.0456 70.2382L52.217 84.9188C52.2267 85.8324 51.4732 86.5861 50.5418 86.5972C49.6104 86.6082 48.8391 85.8704 48.8277 84.9568Z" fill="#FFFFFE"/>
<path fill-rule="evenodd" clip-rule="evenodd" d="M47.9901 29.043L47.8187 14.3623C47.8074 13.4488 48.5609 12.6951 49.4923 12.684C50.4238 12.6729 51.1951 13.4108 51.2064 14.3243L51.3778 29.005C51.3891 29.917 50.634 30.6723 49.7026 30.6818C48.7712 30.6928 47.9998 29.955 47.9901 29.043Z" fill="#FFFFFE"/>
<path fill-rule="evenodd" clip-rule="evenodd" d="M13.9695 47.9591L28.9642 48.0066C29.8956 48.0098 30.6556 48.7587 30.6523 49.6707C30.6507 50.5827 29.8859 51.3268 28.9528 51.3237L13.9598 51.2778C13.0268 51.2746 12.2668 50.5257 12.27 49.6137C12.2733 48.7001 13.0381 47.9559 13.9695 47.9591Z" fill="#FFFFFE"/>
<path fill-rule="evenodd" clip-rule="evenodd" d="M71.0811 47.9575L86.0757 48.0034C87.0071 48.0066 87.7671 48.7555 87.7639 49.6675C87.7607 50.5811 86.9958 51.3252 86.0644 51.3221L71.0698 51.2746C70.1384 51.2714 69.3784 50.5225 69.3816 49.6105C69.3848 48.6985 70.1497 47.9543 71.0811 47.9575Z" fill="#FFFFFE"/>
<path fill-rule="evenodd" clip-rule="evenodd" d="M49.5974 34.2585C40.9366 34.2585 33.8896 41.1587 33.8896 49.639C33.8896 58.1209 40.9366 65.0211 49.5974 65.0211C58.2598 65.0211 65.3068 58.1209 65.3068 49.639C65.3068 41.1587 58.2598 34.2585 49.5974 34.2585ZM62.097 49.639C62.097 56.3872 56.4891 61.8782 49.5974 61.8782C42.7056 61.8782 37.0994 56.3872 37.0994 49.639C37.0994 42.8908 42.7056 37.3998 49.5974 37.3998C56.4891 37.3998 62.097 42.8908 62.097 49.639Z" fill="#FFFFFE"/>
</g>
<defs>
<clipPath id="clip0_0_1079">
<rect width="100" height="100" fill="white"/>
</clipPath>
</defs>
</svg>
