<svg width="100" height="100" viewBox="0 0 100 100" fill="none" xmlns="http://www.w3.org/2000/svg">
<g clip-path="url(#clip0_0_1058)">
<g clip-path="url(#clip1_0_1058)">
<path fill-rule="evenodd" clip-rule="evenodd" d="M84.408 66.8071H12.6495C11.6171 66.8071 10.7724 66.0146 10.7724 65.0444C10.7724 64.0758 11.6171 63.2833 12.6495 63.2833H84.408C85.4404 63.2833 86.2852 64.0758 86.2852 65.0444C86.2852 66.0146 85.4404 66.8071 84.408 66.8071Z" fill="white"/>
<path fill-rule="evenodd" clip-rule="evenodd" d="M67.6946 78.1921H12.6495C11.6171 78.1921 10.7724 77.3997 10.7724 76.4294C10.7724 75.4608 11.6171 74.6683 12.6495 74.6683H67.6946C68.727 74.6683 69.5735 75.4608 69.5735 76.4294C69.5735 77.3997 68.727 78.1921 67.6946 78.1921Z" fill="white"/>
<path fill-rule="evenodd" clip-rule="evenodd" d="M27.2511 23.68C28.4243 23.68 29.594 23.8017 30.7377 24.04C34.3946 15.8433 42.9286 10.375 52.1613 10.375C63.683 10.375 73.2651 18.2317 75.1717 29.1417C75.1996 29.1417 75.2256 29.1417 75.2534 29.1417C82.7863 29.1417 88.9165 35.075 88.9165 42.3683C88.9165 49.6617 82.7863 55.5933 75.2534 55.5933H27.2511C18.1644 55.5933 10.7723 48.435 10.7723 39.6367C10.7723 30.8383 18.1644 23.68 27.2511 23.68ZM14.0868 39.6367C14.0868 46.6733 19.9911 52.3967 27.2511 52.3967H75.2534C80.9596 52.3967 85.602 47.8983 85.602 42.3683C85.602 36.8383 80.9596 32.3383 75.2534 32.3383C74.8728 32.3383 74.4557 32.3667 73.9429 32.4283L72.2587 32.63L72.0901 31.0017C71.0508 21.065 62.482 13.5717 52.1613 13.5717C43.7177 13.5717 36.1396 18.7617 33.3031 26.4867L32.766 27.945L31.24 27.475C29.9434 27.0783 28.6016 26.8767 27.2511 26.8767C19.9911 26.8767 14.0868 32.6 14.0868 39.6367Z" fill="white"/>
<path fill-rule="evenodd" clip-rule="evenodd" d="M49.5472 89.1205H12.6494C11.617 89.1205 10.7723 88.3276 10.7723 87.3586C10.7723 86.3895 11.617 85.5967 12.6494 85.5967H49.5472C50.5813 85.5967 51.426 86.3895 51.426 87.3586C51.426 88.3276 50.5813 89.1205 49.5472 89.1205Z" fill="white"/>
</g>
</g>
<defs>
<clipPath id="clip0_0_1058">
<rect width="100" height="100" fill="white" transform="matrix(-1 0 0 1 100 0)"/>
</clipPath>
<clipPath id="clip1_0_1058">
<rect width="79" height="80" fill="white" transform="matrix(-1 0 0 1 89 10)"/>
</clipPath>
</defs>
</svg>
