<svg width="100" height="100" viewBox="0 0 100 100" fill="none" xmlns="http://www.w3.org/2000/svg">
<g clip-path="url(#clip0_0_999)">
<g clip-path="url(#clip1_0_999)">
<path fill-rule="evenodd" clip-rule="evenodd" d="M76.8289 54.1395C75.8822 54.1395 74.9369 54.2414 74.0129 54.4437C71.0573 47.519 64.163 42.899 56.7027 42.899C47.3929 42.899 39.6519 49.5362 38.1104 58.7534C38.0892 58.7534 38.0679 58.7534 38.0452 58.7534C31.958 58.7534 27.0057 63.7658 27.0057 69.9284C27.0057 76.0878 31.958 81.0988 38.0452 81.0988H76.8289C84.1708 81.0988 90.1442 75.0519 90.1442 67.6191C90.1442 60.1864 84.1708 54.1395 76.8289 54.1395ZM87.4663 67.6191C87.4663 73.5626 82.6946 78.3986 76.8289 78.3986H38.0452C33.4343 78.3986 29.6837 74.5986 29.6837 69.9284C29.6837 65.2551 33.4343 61.4536 38.0452 61.4536C38.3532 61.4536 38.69 61.4779 39.1042 61.5296L40.4652 61.7L40.6017 60.3248C41.4408 51.9306 48.3639 45.6008 56.7027 45.6008C63.5242 45.6008 69.6478 49.9834 71.9404 56.5095L72.3728 57.7417L73.6063 57.3447C74.6547 57.01 75.738 56.8412 76.8289 56.8412C82.6946 56.8412 87.4663 61.6757 87.4663 67.6191Z" fill="white"/>
<path fill-rule="evenodd" clip-rule="evenodd" d="M22.2264 36.8871C22.7559 37.4834 23.6754 37.5382 24.2701 37.0088C24.8664 36.4779 24.921 35.556 24.3915 34.9597L15.8844 25.3531C15.3564 24.7568 14.4369 24.702 13.8406 25.2329C13.2459 25.7623 13.1913 26.6842 13.7193 27.282L22.2264 36.8871Z" fill="white"/>
<path fill-rule="evenodd" clip-rule="evenodd" d="M21.2099 60.6443L11.8303 69.3944C11.2477 69.939 11.2143 70.8609 11.756 71.4466C12.2992 72.0307 13.2201 72.0642 13.8028 71.5196L23.1823 62.7694C23.765 62.2263 23.7983 61.303 23.2567 60.7188C22.7135 60.1346 21.7926 60.1012 21.2099 60.6443Z" fill="white"/>
<path fill-rule="evenodd" clip-rule="evenodd" d="M58.8754 27.2744C58.3322 26.6903 57.4112 26.6568 56.8286 27.1999L47.449 35.95C46.8664 36.4946 46.833 37.4165 47.3762 38.0022C47.9179 38.5863 48.8388 38.6198 49.4214 38.0752L58.801 29.3251C59.3836 28.782 59.417 27.8586 58.8754 27.2744Z" fill="white"/>
<path fill-rule="evenodd" clip-rule="evenodd" d="M36.707 32.9334C37.5005 32.9958 38.2 32.3949 38.2622 31.5993L39.2621 18.7935C39.3243 17.9979 38.7249 17.2951 37.9314 17.2328C37.1379 17.1704 36.4369 17.7713 36.3747 18.5669L35.3764 31.3726C35.3142 32.1698 35.912 32.8711 36.707 32.9334Z" fill="white"/>
<path fill-rule="evenodd" clip-rule="evenodd" d="M19.013 48.021C19.0858 47.227 18.4971 46.5165 17.7051 46.442L4.94818 45.2524C4.15466 45.1794 3.44611 45.7681 3.37328 46.5637C3.29893 47.3593 3.88762 48.0697 4.67962 48.1427L17.4366 49.3324C18.2301 49.4069 18.9387 48.8167 19.013 48.021Z" fill="white"/>
<path fill-rule="evenodd" clip-rule="evenodd" d="M24.5008 48.488C25.0273 42.6069 30.2269 38.2517 36.0926 38.7795C39.0557 39.0473 41.6275 40.5107 43.3814 42.6511C44.0202 42.0213 44.7166 41.4219 45.4722 40.8712C43.2676 38.1999 40.045 36.3744 36.3368 36.0413C28.9661 35.378 22.4313 40.8514 21.7698 48.2416C21.3419 53.0183 23.4782 57.4329 27.0271 60.1453C27.4276 59.4546 27.9677 58.7001 28.6854 57.9608C25.8618 55.8021 24.161 52.2881 24.5008 48.488Z" fill="white"/>
</g>
</g>
<defs>
<clipPath id="clip0_0_999">
<rect width="100" height="100" fill="white"/>
</clipPath>
<clipPath id="clip1_0_999">
<rect width="88" height="64.4651" fill="white" transform="translate(3 17)"/>
</clipPath>
</defs>
</svg>
