<svg width="100" height="100" viewBox="0 0 100 100" fill="none" xmlns="http://www.w3.org/2000/svg">
<g clip-path="url(#clip0_0_972)">
<path fill-rule="evenodd" clip-rule="evenodd" d="M72.3446 27.6969C71.16 27.6969 69.9785 27.8224 68.8216 28.0735C65.1277 19.4821 56.5077 13.7515 47.18 13.7515C35.5415 13.7515 25.8616 21.9847 23.9354 33.4214C23.9077 33.4199 23.88 33.4199 23.8539 33.4199C16.2431 33.4199 10.0508 39.6403 10.0508 47.2842C10.0508 54.9265 16.2431 61.1439 23.8539 61.1439H72.3446C81.5231 61.1439 88.9923 53.6408 88.9923 44.4204C88.9923 35.1985 81.5231 27.6969 72.3446 27.6969ZM85.6431 44.4204C85.6431 51.7949 79.6785 57.7934 72.3446 57.7934H23.8539C18.0892 57.7934 13.3985 53.0791 13.3985 47.2842C13.3985 41.4862 18.0892 36.7704 23.8539 36.7704C24.2385 36.7704 24.6585 36.801 25.1769 36.8638L26.8769 37.0765L27.0492 35.3699C28.0985 24.9556 36.7539 17.102 47.18 17.102C55.7108 17.102 63.3662 22.5418 66.2308 30.6372L66.7723 32.1648L68.3154 31.6735C69.6246 31.2571 70.98 31.0474 72.3446 31.0474C79.6785 31.0474 85.6431 37.0459 85.6431 44.4204Z" fill="white"/>
<path fill-rule="evenodd" clip-rule="evenodd" d="M24.0878 70.3673C25.497 72.928 26.9078 75.4888 28.317 78.0495C29.2985 79.8311 32.0401 78.2408 31.057 76.4561C29.6462 73.8954 28.237 71.3347 26.8262 68.774C25.8447 66.9923 23.1047 68.5842 24.0878 70.3673Z" fill="white"/>
<path fill-rule="evenodd" clip-rule="evenodd" d="M39.803 70.3673C41.2138 72.928 42.6246 75.4888 44.0338 78.0495C45.0153 79.8311 47.7569 78.2408 46.7738 76.4561C45.363 73.8954 43.9538 71.3347 42.543 68.774C41.5615 66.9923 38.8215 68.5842 39.803 70.3673Z" fill="white"/>
<path fill-rule="evenodd" clip-rule="evenodd" d="M56.323 70.3673C57.7338 72.928 59.143 75.4888 60.5538 78.0495C61.5353 79.8311 64.2753 78.2408 63.2938 76.4561C61.883 73.8954 60.4723 71.3347 59.063 68.774C58.0815 66.9923 55.34 68.5842 56.323 70.3673Z" fill="white"/>
<path fill-rule="evenodd" clip-rule="evenodd" d="M72.2876 70.3673C73.6984 72.928 75.1076 75.4888 76.5184 78.0495C77.4999 79.8311 80.2399 78.2408 79.2584 76.4561C77.8476 73.8954 76.4369 71.3347 75.0276 68.774C74.0461 66.9923 71.3046 68.5842 72.2876 70.3673Z" fill="white"/>
<path fill-rule="evenodd" clip-rule="evenodd" d="M37.003 79.4408C38.4122 82.0015 39.823 84.5622 41.2322 87.123C42.2137 88.9046 44.9553 87.3143 43.9722 85.5296C42.563 82.9689 41.1522 80.4082 39.7414 77.8474C38.7614 76.0658 36.0199 77.6561 37.003 79.4408Z" fill="white"/>
<path fill-rule="evenodd" clip-rule="evenodd" d="M52.7168 79.4362C54.1276 81.997 55.5368 84.5577 56.9476 87.1184C57.9291 88.9015 60.6691 87.3097 59.6876 85.525C58.2768 82.9643 56.8661 80.4036 55.4568 77.8429C54.4753 76.0612 51.7338 77.6531 52.7168 79.4362Z" fill="white"/>
<path fill-rule="evenodd" clip-rule="evenodd" d="M68.7477 78.8025C70.1569 81.3633 71.5677 83.924 72.9769 86.4847C73.9585 88.2663 76.7 86.676 75.7169 84.8913C74.3062 82.3306 72.8969 79.7699 71.4862 77.2092C70.5046 75.4275 67.7646 77.0178 68.7477 78.8025Z" fill="white"/>
</g>
<defs>
<clipPath id="clip0_0_972">
<rect width="100" height="100" fill="white"/>
</clipPath>
</defs>
</svg>
