<svg width="100" height="100" viewBox="0 0 100 100" fill="none" xmlns="http://www.w3.org/2000/svg">
<g clip-path="url(#clip0_0_986)">
<path fill-rule="evenodd" clip-rule="evenodd" d="M69.053 26.737C67.9246 26.737 66.7976 26.8594 65.6958 27.1015C62.1734 18.8245 53.9554 13.3033 45.0626 13.3033C33.9648 13.3033 24.7374 21.2354 22.9006 32.2526C22.874 32.2512 22.8488 32.2512 22.8222 32.2512C15.566 32.2512 9.66357 38.2425 9.66357 45.6061C9.66357 52.9696 15.566 58.9595 22.8222 58.9595H69.053C77.8044 58.9595 84.9248 51.7311 84.9248 42.8475C84.9248 33.9654 77.8044 26.737 69.053 26.737ZM81.7328 42.8475C81.7328 49.9521 76.0446 55.731 69.053 55.731H22.8222C17.3258 55.731 12.8556 51.1893 12.8556 45.6061C12.8556 40.0215 17.3258 35.4784 22.8222 35.4784C23.189 35.4784 23.5894 35.5079 24.0836 35.5698L25.7062 35.7739L25.8686 34.1301C26.871 24.0967 35.1212 16.5304 45.0626 16.5304C53.1938 16.5304 60.4934 21.7702 63.2248 29.5701L63.7414 31.0422L65.2114 30.5679C66.4602 30.1682 67.7524 29.9655 69.053 29.9655C76.0446 29.9655 81.7328 35.7444 81.7328 42.8475Z" fill="white"/>
<path fill-rule="evenodd" clip-rule="evenodd" d="M53.4375 68.1936C53.4375 69.8726 52.0823 71.235 50.4121 71.235C48.7419 71.235 47.3867 69.8726 47.3867 68.1936C47.3867 66.5145 48.7419 65.1522 50.4121 65.1522C52.0823 65.1522 53.4375 66.5145 53.4375 68.1936Z" fill="white"/>
<path fill-rule="evenodd" clip-rule="evenodd" d="M59.4869 82.7898C59.4869 84.4702 58.1331 85.8312 56.4629 85.8312C54.7913 85.8312 53.4375 84.4702 53.4375 82.7898C53.4375 81.1107 54.7913 79.7498 56.4629 79.7498C58.1331 79.7498 59.4869 81.1107 59.4869 82.7898Z" fill="white"/>
<path fill-rule="evenodd" clip-rule="evenodd" d="M74.3548 68.1936C74.3548 69.8726 73.001 71.235 71.3294 71.235C69.6592 71.235 68.3054 69.8726 68.3054 68.1936C68.3054 66.5145 69.6592 65.1522 71.3294 65.1522C73.001 65.1522 74.3548 66.5145 74.3548 68.1936Z" fill="white"/>
<path fill-rule="evenodd" clip-rule="evenodd" d="M79.1947 82.7898C79.1947 84.4702 77.8409 85.8312 76.1693 85.8312C74.4991 85.8312 73.1453 84.4702 73.1453 82.7898C73.1453 81.1107 74.4991 79.7498 76.1693 79.7498C77.8409 79.7498 79.1947 81.1107 79.1947 82.7898Z" fill="white"/>
<path fill-rule="evenodd" clip-rule="evenodd" d="M34.4605 69.5123C34.4605 71.1913 33.1053 72.5537 31.4351 72.5537C29.7649 72.5537 28.4097 71.1913 28.4097 69.5123C28.4097 67.8333 29.7649 66.4709 31.4351 66.4709C33.1053 66.4709 34.4605 67.8333 34.4605 69.5123Z" fill="white"/>
<path fill-rule="evenodd" clip-rule="evenodd" d="M40.5098 84.1085C40.5098 85.7875 39.156 87.1499 37.4844 87.1499C35.8142 87.1499 34.4604 85.7875 34.4604 84.1085C34.4604 82.4295 35.8142 81.0685 37.4844 81.0685C39.156 81.0685 40.5098 82.4295 40.5098 84.1085Z" fill="white"/>
</g>
<defs>
<clipPath id="clip0_0_986">
<rect width="100" height="100" fill="white"/>
</clipPath>
</defs>
</svg>
