<svg width="100" height="100" viewBox="0 0 100 100" fill="none" xmlns="http://www.w3.org/2000/svg">
<g clip-path="url(#clip0_0_925)">
<path fill-rule="evenodd" clip-rule="evenodd" d="M20.7887 46.0435H14.3363C10.1305 46.0435 6.70755 42.5398 6.70755 38.2334C6.70755 33.9255 10.1305 30.4218 14.3363 30.4218C14.617 30.4218 14.9231 30.4436 15.3018 30.4912L16.5426 30.6491L16.6675 29.3809C17.4343 21.6415 23.7484 15.8057 31.357 15.8057C34.6605 15.8057 37.7786 16.9541 40.2951 18.9229C40.839 18.297 41.4083 17.7038 42.0099 17.1527C39.0207 14.7348 35.2768 13.3157 31.357 13.3157C22.8635 13.3157 15.8014 19.4345 14.3954 27.9318C14.3753 27.9318 14.3565 27.9318 14.3363 27.9318C8.78361 27.9318 4.26489 32.554 4.26489 38.2334C4.26489 43.9127 8.78361 48.5335 14.3363 48.5335H20.8451C20.7874 48.0178 20.7485 47.4967 20.7485 46.9633C20.7485 46.6531 20.7686 46.3483 20.7887 46.0435Z" fill="white"/>
<path fill-rule="evenodd" clip-rule="evenodd" d="M80.9932 27.9577C79.9108 27.9577 78.8298 28.0761 77.773 28.3101C74.3944 20.3081 66.5118 14.9702 57.982 14.9702C47.3385 14.9702 38.4877 22.6389 36.7245 33.2887C36.7004 33.2887 36.6749 33.2887 36.6507 33.2887C29.6907 33.2887 24.0278 39.081 24.0278 46.2C24.0278 53.3189 29.6907 59.1085 36.6507 59.1085H80.9932C89.3874 59.1085 96.2171 52.1216 96.2171 43.5331C96.2171 34.9446 89.3874 27.9577 80.9932 27.9577ZM93.1554 43.5331C93.1554 50.4017 87.7007 55.9885 80.9932 55.9885H36.6507C31.3786 55.9885 27.0895 51.5977 27.0895 46.2C27.0895 40.8009 31.3786 36.4087 36.6507 36.4087C37.0025 36.4087 37.3866 36.4373 37.8593 36.4958L39.4156 36.6944L39.5714 35.1052C40.5329 25.4051 48.4477 18.0902 57.982 18.0902C65.7826 18.0902 72.7829 23.1559 75.4029 30.6967L75.8984 32.1199L77.3097 31.6614C78.5075 31.275 79.747 31.079 80.9932 31.079C87.7007 31.079 93.1554 36.6659 93.1554 43.5331Z" fill="white"/>
<path fill-rule="evenodd" clip-rule="evenodd" d="M36.8643 67.6997C38.1534 70.0836 39.4426 72.4688 40.7331 74.854C41.6301 76.514 44.1359 75.0323 43.2375 73.3696C41.9483 70.9857 40.6592 68.6005 39.3687 66.2152C38.4717 64.5566 35.9659 66.0384 36.8643 67.6997Z" fill="white"/>
<path fill-rule="evenodd" clip-rule="evenodd" d="M80.9422 67.6997C82.2313 70.0836 83.5218 72.4688 84.8109 74.854C85.708 76.514 88.2151 75.0323 87.3167 73.3696C86.0262 70.9857 84.7371 68.6005 83.4479 66.2152C82.5496 64.5566 80.0438 66.0384 80.9422 67.6997Z" fill="white"/>
<path fill-rule="evenodd" clip-rule="evenodd" d="M77.7044 75.5548C78.9935 77.94 80.2827 80.3253 81.5731 82.7105C82.4702 84.3691 84.9759 82.8874 84.0776 81.226C82.7884 78.8408 81.4993 76.4569 80.2088 74.0717C79.3118 72.4117 76.806 73.8934 77.7044 75.5548Z" fill="white"/>
<path fill-rule="evenodd" clip-rule="evenodd" d="M14.9353 58.1819C16.2257 60.5672 17.5149 62.9524 18.804 65.3376C19.7011 66.9963 22.2082 65.5145 21.3098 63.8531C20.0207 61.4679 18.7302 59.084 17.441 56.6988C16.544 55.0388 14.0369 56.5206 14.9353 58.1819Z" fill="white"/>
<path fill-rule="evenodd" clip-rule="evenodd" d="M26.7471 66.633C28.0362 69.0182 29.3254 71.4021 30.6159 73.7873C31.5129 75.4473 34.0187 73.9655 33.1203 72.3042C31.8312 69.9189 30.542 67.5337 29.2515 65.1485C28.3545 63.4885 25.8487 64.9716 26.7471 66.633Z" fill="white"/>
<path fill-rule="evenodd" clip-rule="evenodd" d="M23.3684 76.1494C24.6576 78.5346 25.9467 80.9199 27.2372 83.3051C28.1342 84.9637 30.6413 83.482 29.7416 81.8206C28.4525 79.4354 27.1633 77.0502 25.8742 74.6663C24.9758 73.0063 22.4701 74.488 23.3684 76.1494Z" fill="white"/>
<path fill-rule="evenodd" clip-rule="evenodd" d="M36.8643 77.7903C38.1534 80.1742 39.4426 82.5594 40.7331 84.9447C41.6301 86.6047 44.1359 85.1229 43.2375 83.4602C41.9483 81.0763 40.6592 78.6911 39.3687 76.3059C38.4717 74.6459 35.9659 76.129 36.8643 77.7903Z" fill="white"/>
<path fill-rule="evenodd" clip-rule="evenodd" d="M64.856 58.963L64.5471 59.1085H64.9245L64.856 58.963Z" fill="white"/>
<path fill-rule="evenodd" clip-rule="evenodd" d="M50.8582 58.831L50.4258 59.1085H51.0328L50.8582 58.831Z" fill="white"/>
<path fill-rule="evenodd" clip-rule="evenodd" d="M70.9728 77.6951H66.2996C65.6806 77.6951 65.1058 78.0067 64.7621 78.5306C64.4196 79.053 64.3552 79.7116 64.5942 80.2912L68.9813 90.9234L51.1173 71.7286H55.589C56.2631 71.7286 56.8849 71.3558 57.2085 70.7571C57.5335 70.1571 57.5106 69.4278 57.1481 68.8495L52.7314 61.8135H49.9799L54.7269 69.3761H50.0229C49.2843 69.3761 48.6169 69.821 48.3255 70.5068C48.0328 71.1939 48.1711 71.9899 48.6773 72.5341L69.0726 94.4489C69.4379 94.8421 69.92 95.0448 70.4115 95.0448C70.7579 95.0448 71.1084 94.9441 71.424 94.736C72.1854 94.2352 72.4741 93.2923 72.1236 92.4419L67.01 80.0477H71.7167C72.3532 80.0477 72.9374 79.7211 73.2785 79.1769C73.6182 78.6326 73.6612 77.9591 73.3899 77.3781L66.1774 61.8135H63.6139L70.9728 77.6951Z" fill="white"/>
</g>
<defs>
<clipPath id="clip0_0_925">
<rect width="100" height="100" fill="white"/>
</clipPath>
</defs>
</svg>
